<svg width="34" height="33" viewBox="0 0 34 33" fill="none" xmlns="http://www.w3.org/2000/svg">
<mask id="mask0_1_3217" style="mask-type:luminance" maskUnits="userSpaceOnUse" x="0" y="15" width="24" height="18">
<path d="M19.6662 18.4258C19.2978 18.6076 18.9154 18.7688 18.5266 18.9092C18.5197 18.9139 18.5125 18.9159 18.5059 18.9188C16.6524 19.6494 14.6235 20.238 12.6321 20.4045C11.2216 20.5219 9.81368 20.5699 8.45727 21.0114C7.24827 21.4045 6.11689 22.0218 5.12737 22.8193C4.24974 23.5264 3.48775 24.3734 2.87735 25.3268C2.86805 25.3383 2.85896 25.352 2.85228 25.366C2.65421 25.6972 2.46512 26.0362 2.28575 26.3789C2.27635 26.3953 2.26736 26.4114 2.26036 26.4296C1.2884 28.2811 0.572274 30.2866 0.155762 32.4003C0.445972 31.6402 0.814534 30.9221 1.25403 30.2497C2.04224 29.1238 2.92384 28.1181 4.03203 27.294C4.96492 26.6006 6.00291 26.0504 7.10097 25.6691C8.35072 25.2357 9.60276 25.0898 10.9187 25.0517C11.1902 25.0441 11.463 25.0472 11.7363 25.0497C12.1879 25.0545 12.6395 25.0594 13.0848 25.0155C13.7465 24.9497 14.4026 24.8273 15.043 24.6482C16.2773 24.3023 17.4474 23.7456 18.4987 23.0127C20.691 21.4834 22.3236 19.2043 23.0236 16.549C23.0994 16.2685 23.1617 15.9828 23.2148 15.695C22.2314 16.8254 21.0251 17.758 19.6662 18.4258Z" fill="white"/>
</mask>
<g mask="url(#mask0_1_3217)">
<path d="M-4.67139 17.2314L21.0947 9.03348L28.0414 30.8651L2.27528 39.0633L-4.67139 17.2314Z" fill="url(#paint0_linear_1_3217)"/>
</g>
<mask id="mask1_1_3217" style="mask-type:luminance" maskUnits="userSpaceOnUse" x="2" y="0" width="32" height="24">
<path d="M29.1415 4.05756C28.6076 4.32572 28.0541 4.56191 27.4882 4.76593C27.4784 4.76843 27.4687 4.77345 27.4611 4.77825C25.2498 5.64916 22.9429 6.27396 20.5938 6.6377C18.2716 6.99727 15.9029 6.91077 13.6498 7.67837C12.0826 8.21218 10.6167 9.02365 9.3253 10.062C8.08318 11.0629 7.01553 12.2732 6.16955 13.6333C5.95309 13.9998 5.74384 14.371 5.54201 14.7476C4.16993 17.3231 3.1613 20.1174 2.58057 23.0687C2.9742 22.0331 3.47836 21.0515 4.07372 20.1368C6.75728 16.0142 11.197 13.5202 16.0722 13.1711C18.1757 13.0187 20.3057 13.1633 22.3646 12.6468C24.1847 12.1918 25.9141 11.3974 27.4513 10.3275C30.4227 8.25386 32.6365 5.16456 33.5887 1.56359C33.6845 1.19452 33.7682 0.81574 33.8395 0.436851C33.8417 0.426927 33.8417 0.419928 33.8445 0.410004C32.5386 1.91052 30.9394 3.1552 29.1415 4.05756Z" fill="white"/>
</mask>
<g mask="url(#mask1_1_3217)">
<path d="M-3.96655 2.49341L30.9704 -8.62256L40.3916 20.9859L5.45474 32.1018L-3.96655 2.49341Z" fill="url(#paint1_linear_1_3217)"/>
</g>
<mask id="mask2_1_3217" style="mask-type:luminance" maskUnits="userSpaceOnUse" x="2" y="0" width="32" height="24">
<path d="M29.1415 4.05766C28.6076 4.32582 28.0541 4.56201 27.4882 4.76603C27.4784 4.76854 27.4687 4.77355 27.4611 4.77836C25.2498 5.64927 22.9428 6.27406 20.5938 6.63781C18.2716 6.99737 15.9029 6.91087 13.6498 7.67847C12.0826 8.21228 10.6167 9.02375 9.3253 10.0621C8.08318 11.063 7.01552 12.2733 6.16955 13.6334C5.95309 13.9999 5.74384 14.3711 5.54201 14.7477C4.16993 17.3232 3.1613 20.1175 2.58057 23.0688C2.99624 21.7507 3.53247 20.501 4.1645 19.3325C7.01061 14.0836 11.7187 10.9056 16.8891 10.4602C19.1201 10.2684 21.3808 10.4555 23.5647 9.79616C25.4937 9.21586 27.3259 8.20466 28.9569 6.83953C30.9518 5.16968 32.6242 2.98043 33.8396 0.436851C33.8418 0.426927 33.8418 0.419928 33.8446 0.410004C32.5386 1.91062 30.9394 3.15531 29.1415 4.05766Z" fill="white"/>
</mask>
<g mask="url(#mask2_1_3217)">
<path d="M-8.74023 11.2912L18.831 -15.2093L45.1655 12.1873L17.5946 38.6877L-8.74023 11.2912Z" fill="url(#paint2_linear_1_3217)"/>
</g>
<mask id="mask3_1_3217" style="mask-type:luminance" maskUnits="userSpaceOnUse" x="0" y="15" width="24" height="18">
<path d="M19.7461 18.3881C19.352 18.5855 18.9438 18.7599 18.5265 18.9104C18.5192 18.9124 18.5121 18.9158 18.5065 18.9193C16.8754 19.5616 15.174 20.0226 13.4412 20.2912C11.7285 20.5559 9.98142 20.4923 8.31944 21.0586C7.16372 21.4522 6.08248 22.0509 5.13016 22.8166C4.21387 23.5545 3.4265 24.4475 2.80252 25.4503C2.64278 25.7209 2.48869 25.9951 2.33993 26.2723C1.32764 28.172 0.583521 30.2327 0.155518 32.41C0.462025 31.4374 0.857643 30.5159 1.32388 29.654C3.42284 25.7825 6.89555 23.439 10.7088 23.1102C12.3545 22.9686 14.0218 23.1067 15.6329 22.6204C17.0553 22.1925 18.4069 21.4469 19.6095 20.4398C21.0811 19.2079 22.3147 17.5933 23.211 15.7174C23.213 15.7101 23.213 15.7049 23.2146 15.6976C22.251 16.8041 21.072 17.722 19.7461 18.3881Z" fill="white"/>
</mask>
<g mask="url(#mask3_1_3217)">
<path d="M-8.0498 22.4708L13.8683 4.37631L31.4199 25.6353L9.50188 43.7298L-8.0498 22.4708Z" fill="url(#paint3_linear_1_3217)"/>
</g>
<defs>
<linearGradient id="paint0_linear_1_3217" x1="-2.23414" y1="28.4864" x2="73.8012" y2="4.29246" gradientUnits="userSpaceOnUse">
<stop stop-color="#166846"/>
<stop offset="1" stop-color="#00AA59"/>
</linearGradient>
<linearGradient id="paint1_linear_1_3217" x1="-5.28419" y1="19.2386" x2="70.8274" y2="-4.97961" gradientUnits="userSpaceOnUse">
<stop stop-color="#166846"/>
<stop offset="1" stop-color="#00AA59"/>
</linearGradient>
<linearGradient id="paint2_linear_1_3217" x1="4.09034" y1="25.3218" x2="28.8757" y2="1.49705" gradientUnits="userSpaceOnUse">
<stop stop-color="#166846"/>
<stop offset="1" stop-color="#00AA59"/>
</linearGradient>
<linearGradient id="paint3_linear_1_3217" x1="0.0811447" y1="33.6323" x2="18.4549" y2="18.4628" gradientUnits="userSpaceOnUse">
<stop stop-color="#166846"/>
<stop offset="1" stop-color="#00AA59"/>
</linearGradient>
</defs>
</svg>
